<?xml version="1.0" encoding="UTF-8"?>
<svg width="21px" height="22px" viewBox="0 0 21 22" version="1.1" xmlns="http://www.w3.org/2000/svg" xmlns:xlink="http://www.w3.org/1999/xlink">
    <title>Group 6</title>
    <defs>
        <polygon id="path-1" points="0 0.438166667 21 0.438166667 21 21.9999389 0 21.9999389"></polygon>
    </defs>
    <g id="Page-1" stroke="none" stroke-width="1" fill="none" fill-rule="evenodd">
        <g id="Button/History/Active" transform="translate(-20.000000, -9.000000)">
            <g id="Group-6" transform="translate(20.000000, 9.000000)">
                <g id="Group-3">
                    <mask id="mask-2" fill="white">
                        <use xlink:href="#path-1"></use>
                    </mask>
                    <g id="Clip-2"></g>
                    <path d="M10.5,0.438105556 C4.71036364,0.438105556 0,4.96155 0,10.5214389 C0,11.4546056 0.133,12.38105 0.395818182,13.2726611 L2.233,12.7739944 C2.01790909,12.0443278 1.90909091,11.28655 1.90909091,10.5214389 C1.90909091,5.97293889 5.76290909,2.27143889 10.5,2.27143889 C15.2370909,2.27143889 19.0909091,5.97293889 19.0909091,10.5214389 C19.0909091,15.0699389 15.2370909,18.7714389 10.5,18.7714389 C9.77772727,18.7714389 9.07136364,18.6773278 8.38345455,18.5092722 L9.66063636,16.7382722 L3.02018182,16.2163833 L5.86918182,21.9999389 L7.238,20.0999944 C8.28672727,20.4299944 9.37936364,20.6047722 10.5,20.6047722 C16.2896364,20.6047722 21,16.0813278 21,10.5214389 C21,4.96155 16.2896364,0.438105556 10.5,0.438105556" id="Fill-1" fill="#FFFFFF" mask="url(#mask-2)"></path>
                </g>
                <path d="M10.0000476,5 C9.44803448,5 9.00002381,5.43482353 9.00002381,5.97058824 L9.00002381,9.47505882 C8.4046763,9.81152941 8,10.4307647 8,11.1470588 C8,12.2192353 8.89535465,13.0882353 10.0000476,13.0882353 C10.1780519,13.0882353 10.3473892,13.0584706 10.5120598,13.0164118 L13.2927927,15.7159412 C13.4881307,15.9055294 13.7441368,16 14.0001429,16 C14.256149,16 14.5121551,15.9055294 14.707493,15.7159412 C15.0975023,15.3367647 15.0975023,14.7220588 14.707493,14.3428824 L11.9260935,11.644 C11.9694278,11.4841765 12.0000952,11.3198235 12.0000952,11.1470588 C12.0000952,10.4307647 11.5954189,9.81152941 11.0000714,9.47505882 L11.0000714,5.97058824 C11.0000714,5.43482353 10.5520608,5 10.0000476,5" id="Fill-4" fill="#FFFFFF"></path>
            </g>
        </g>
    </g>
</svg>