<?xml version="1.0" encoding="UTF-8"?>
<svg width="158px" height="31px" viewBox="0 0 158 31" version="1.1" xmlns="http://www.w3.org/2000/svg" xmlns:xlink="http://www.w3.org/1999/xlink">
    <title>Group 22</title>
    <defs>
        <polygon id="path-1" points="0.52637037 0.1 18.4307037 0.1 18.4307037 30 0.52637037 30"></polygon>
        <polygon id="path-3" points="0.447035294 0.421025926 11.5470353 0.421025926 11.5470353 19 0.447035294 19"></polygon>
        <polygon id="path-5" points="0.254510526 0.1 26.6590895 0.1 26.6590895 29.9998571 0.254510526 29.9998571"></polygon>
        <polygon id="path-7" points="0 30 158 30 158 0 0 0"></polygon>
    </defs>
    <g id="Page-1" stroke="none" stroke-width="1" fill="none" fill-rule="evenodd">
        <g id="Homepage/未審核" transform="translate(-60.000000, -14.000000)">
            <g id="Group-22" transform="translate(60.000000, 14.000000)">
                <path d="M38.2345911,11 C37.0258091,11 35.893165,11.241809 34.8352088,11.7268664 C33.7765275,12.2112041 32.94481,12.9265558 32.3429569,13.8729215 L32.1674768,13.8729215 L31.6446623,11.3461611 L28.7158856,11.3461611 L28.7158856,18.026855 L26.3577817,18.026855 C25.6797905,16.5047536 24.1512287,15.4396424 22.366698,15.4396424 C19.9549349,15.4396424 18,17.379872 18,19.7734934 C18,22.1671149 19.9549349,24.1073444 22.366698,24.1073444 C23.7973681,24.1073444 25.0554586,23.4150222 25.851645,22.360706 L28.7158856,22.360706 L28.7158856,30 L32.4111186,30 L32.4111186,20.5860005 C32.4111186,18.4636946 32.7715053,16.8429984 33.4922788,15.7231923 C34.2130522,14.6048256 35.5385793,14.0442029 37.4681348,14.0442029 C40.0481268,14.0442029 41.3388479,15.4878603 41.3388479,18.3708572 L41.3388479,30 L45,30 L45,17.852695 C45,15.4525965 44.4235263,13.7109958 43.2742044,12.6264535 C42.121982,11.5419113 40.4425943,11 38.2345911,11" id="Fill-1" fill="#2066A6"></path>
                <path d="M50.7704397,18.6135704 C50.9286597,17.094673 51.3927247,15.9107953 52.1640473,15.0619374 C52.9325446,14.210959 53.9743952,13.7861766 55.2903055,13.7861766 C56.6697863,13.7861766 57.7010419,14.23499 58.3805403,15.1297895 C59.0607452,16.0245889 59.3983754,17.1858493 59.3983754,18.6135704 L50.7704397,18.6135704 Z M55.2542822,11 C53.601448,11 52.1583966,11.3788409 50.9258344,12.1379362 C49.6897404,12.8970315 48.7277062,13.9897329 48.0369062,15.4181609 C47.3454,16.845882 47,18.5789376 47,20.6187412 C47,22.7030727 47.3785979,24.4375418 48.1386191,25.8193215 C48.8965213,27.2011011 49.9496733,28.2436203 51.2987816,28.9461722 C52.6443581,29.6487241 54.2011301,30 55.9669786,30 C57.2807699,30 58.4080876,29.9031694 59.3489317,29.7109218 C60.2883631,29.5186742 61.2115486,29.2062719 62.1156631,28.7758351 L62.1156631,25.7846886 C61.1423274,26.2158322 60.202896,26.5381296 59.2980752,26.7544082 C58.3918418,26.9699799 57.3605863,27.0767056 56.205015,27.0767056 C54.4857849,27.0767056 53.1479781,26.5784168 52.1972453,25.5811324 C51.2458061,24.5838479 50.7485432,23.1568336 50.7040438,21.2979689 L63,21.2979689 L63,19.2920914 C63,16.7320884 62.3092001,14.7106614 60.9268939,13.2263968 C59.547413,11.7421323 57.6537171,11 55.2542822,11 L55.2542822,11 Z" id="Fill-3" fill="#2066A6"></path>
                <g id="Group-7" transform="translate(69.000000, 0.000000)">
                    <mask id="mask-2" fill="white">
                        <use xlink:href="#path-1"></use>
                    </mask>
                    <g id="Clip-6"></g>
                    <polygon id="Fill-5" fill="#2066A6" mask="url(#mask-2)" points="4.845 3.931 18.4307037 3.931 18.4307037 0.0995714286 0.52637037 0.0995714286 0.52637037 30.0002857 4.845 30.0002857 4.845 17.2824286 16.4110741 17.2824286 16.4110741 13.491 4.845 13.491"></polygon>
                </g>
                <path d="M99.8590442,25.3268608 C99.0422634,26.5163486 97.7540473,27.1107391 96,27.1107391 C94.2221357,27.1107391 92.9234122,26.5163486 92.1066314,25.3268608 C91.2870486,24.1359595 90.8793587,22.5111037 90.8793587,20.4494662 C90.8793587,18.387122 91.2814446,16.7841759 92.0856164,15.6392144 C92.8939913,14.4949596 94.1843088,13.9224789 95.9649751,13.9224789 C97.7428394,13.9224789 99.0422634,14.4949596 99.8590442,15.6392144 C100.677927,16.7841759 101.086317,18.387122 101.086317,20.4494662 C101.086317,22.5111037 100.677927,24.1359595 99.8590442,25.3268608 M100.661115,12.1039691 C99.3091532,11.3682253 97.7659558,11 96.0350249,11 C93.2127179,11 91.0033468,11.8219693 89.4027086,13.4652011 C87.8020704,15.1084328 87,17.4351077 87,20.4494662 C87,22.4877804 87.3845735,24.222185 88.1579234,25.6491463 C88.9284714,27.0768143 89.986924,28.1595804 91.3395859,28.8953242 C92.6915473,29.6324815 94.2221357,30 95.9306507,30 C98.7039228,30 100.909791,29.1730834 102.545455,27.5192501 C104.180417,25.86471 105,23.508351 105,20.4494662 C105,18.4330618 104.614726,16.7219804 103.844879,15.3169289 C103.072229,13.9118774 102.012375,12.8411264 100.661115,12.1039691" id="Fill-8" fill="#2066A6"></path>
                <g id="Group-12" transform="translate(108.000000, 11.000000)">
                    <mask id="mask-4" fill="white">
                        <use xlink:href="#path-3"></use>
                    </mask>
                    <g id="Clip-11"></g>
                    <path d="M10.5277412,0.472396296 C10.1437412,0.437914815 9.78162353,0.421025926 9.44209412,0.421025926 C8.19550588,0.421025926 7.10985882,0.776396296 6.18232941,1.48713704 C5.25338824,2.19787778 4.50797647,3.0388037 3.94185882,4.00850741 L3.77315294,4.00850741 L3.29809412,0.760211111 L0.447035294,0.760211111 L0.447035294,19.0002111 L4.04350588,19.0002111 L4.04350588,9.4228037 C4.04350588,8.22791481 4.28703529,7.20050741 4.77338824,6.3441 C5.25974118,5.48628519 5.88938824,4.83747037 6.65738824,4.39695185 C7.42750588,3.95713704 8.24350588,3.73687778 9.10185882,3.73687778 C9.48585882,3.73687778 9.84797647,3.7608037 10.1882118,3.80443333 C10.5277412,3.85017407 10.8453882,3.90647037 11.1383294,3.97402593 L11.5470353,0.623692593 C11.2512706,0.556137037 10.9117412,0.50547037 10.5277412,0.472396296" id="Fill-10" fill="#2066A6" mask="url(#mask-4)"></path>
                </g>
                <g id="Group-15" transform="translate(119.000000, 0.000000)">
                    <mask id="mask-6" fill="white">
                        <use xlink:href="#path-5"></use>
                    </mask>
                    <g id="Clip-14"></g>
                    <path d="M9.17872105,18.4262857 L12.0833526,9.232 C12.2474842,8.67771429 12.4542474,7.912 12.7114579,6.93842857 C12.9672474,5.96557143 13.2003,5.03414286 13.4177211,4.14485714 C13.5257211,4.56271429 13.6735105,5.11914286 13.8610895,5.81271429 C14.0486684,6.50842857 14.2454842,7.18271429 14.4458526,7.83557143 C14.6490632,8.48914286 14.7904579,8.95557143 14.8700368,9.232 L17.7384316,18.4262857 L9.17872105,18.4262857 Z M11.1959053,0.0998571429 L0.254510526,29.9998571 L4.81822105,29.9998571 L7.88414211,21.1412857 L18.9470368,21.1412857 L22.0591421,29.9998571 L26.6590895,29.9998571 L15.7169842,0.0998571429 L11.1959053,0.0998571429 Z" id="Fill-13" fill="#2066A6" mask="url(#mask-6)"></path>
                </g>
                <mask id="mask-8" fill="white">
                    <use xlink:href="#path-7"></use>
                </mask>
                <g id="Clip-17"></g>
                <polygon id="Fill-16" fill="#2066A6" mask="url(#mask-8)" points="146 30 151 30 151 0 146 0"></polygon>
                <polygon id="Fill-18" fill="#2066A6" mask="url(#mask-8)" points="153 30 158 30 158 0 153 0"></polygon>
                <path d="M12,10.0002731 C12,10.5525813 12.4474187,11 12.9997269,11 C13.552035,11 14,10.5525813 14,10.0002731 C14,9.44796504 13.552035,9 12.9997269,9 C12.4474187,9 12,9.44796504 12,10.0002731" id="Fill-19" fill="#2066A6" mask="url(#mask-8)"></path>
                <path d="M17,10.0002731 C17,10.5525813 17.447541,11 18,11 C18.552459,11 19,10.5525813 19,10.0002731 C19,9.44796504 18.552459,9 18,9 C17.447541,9 17,9.44796504 17,10.0002731" id="Fill-20" fill="#2066A6" mask="url(#mask-8)"></path>
                <path d="M18.2879842,24.5504824 C16.9735822,25.6479996 15.2210463,26.2039409 13.0189405,26.2039409 C10.0985238,26.2039409 7.94716442,25.2041085 6.56700663,23.2044437 C5.1861341,21.2047789 4.49569783,18.4624225 4.49569783,14.9802476 C4.49569783,11.4973544 5.1861341,8.76218067 6.56700663,6.77544473 C7.94716442,4.78942706 10.1113891,3.79605909 13.0575364,3.79605909 C16.0036836,3.79605909 18.1543283,4.78942706 19.5094703,6.77544473 C20.6980785,8.51725046 21.3334799,10.8688678 21.4800011,13.7599061 C21.6615444,13.7433859 21.8373698,13.7045993 22.0232015,13.7045993 C23.5463067,13.7045993 24.9243203,14.2914262 25.9899937,15.2280509 C25.9907084,15.1432949 26,15.0657217 26,14.9802476 C26,11.9592022 25.5161228,9.32674121 24.5526569,7.08142792 C23.5884762,4.83755118 22.146851,3.09574544 20.2320697,1.85816554 C18.3165737,0.619149089 15.9236331,0 13.0575364,0 C10.1113891,0 7.66770212,0.619149089 5.72719026,1.85816554 C3.78596366,3.09574544 2.34433846,4.83755118 1.40660307,7.08142792 C0.467438216,9.32674121 0,11.9455551 0,14.9385879 C0,17.9596332 0.467438216,20.5985587 1.40660307,22.8575191 C2.34433846,25.1157612 3.77953102,26.8712141 5.70717761,28.1217229 C7.63625368,29.3743865 10.0727932,30 13.0189405,30 C15.885752,30 18.2844105,29.3743865 20.2127718,28.1217229 C21.2005388,27.481744 22.0575089,26.7052937 22.7929736,25.8038643 C22.5378124,25.8369047 22.2869395,25.8821558 22.0232015,25.8821558 C20.6073068,25.8821558 19.3200649,25.3714655 18.2879842,24.5504824" id="Fill-21" fill="#2066A6" mask="url(#mask-8)"></path>
            </g>
        </g>
    </g>
</svg>